<svg xmlns="http://www.w3.org/2000/svg" xmlns:xlink="http://www.w3.org/1999/xlink" width="500" zoomAndPan="magnify" viewBox="0 0 375 374.999991" height="500" preserveAspectRatio="xMidYMid meet" version="1.2"><defs><clipPath id="eb786d75e9"><path d="M 82.238281 82.238281 L 292.761719 82.238281 L 292.761719 292.761719 L 82.238281 292.761719 Z M 82.238281 82.238281 "/></clipPath><clipPath id="76d0595baf"><path d="M 187.5 292.761719 C 159.398438 292.761719 132.933594 281.824219 113.078125 261.921875 C 93.175781 242.066406 82.238281 215.601562 82.238281 187.5 C 82.238281 159.398438 93.175781 132.933594 113.078125 113.078125 C 132.933594 93.175781 159.398438 82.238281 187.5 82.238281 C 215.601562 82.238281 242.066406 93.175781 261.921875 113.078125 C 281.824219 132.976562 292.761719 159.398438 292.761719 187.5 C 292.761719 215.601562 281.824219 242.066406 261.921875 261.921875 C 242.066406 281.824219 215.601562 292.761719 187.5 292.761719 Z M 187.5 88.550781 C 161.078125 88.550781 136.214844 98.855469 117.535156 117.535156 C 98.855469 136.214844 88.550781 161.078125 88.550781 187.5 C 88.550781 213.921875 98.855469 238.785156 117.535156 257.464844 C 136.214844 276.144531 161.078125 286.449219 187.5 286.449219 C 213.921875 286.449219 238.785156 276.144531 257.464844 257.464844 C 276.144531 238.785156 286.449219 213.921875 286.449219 187.5 C 286.449219 161.078125 276.144531 136.214844 257.464844 117.535156 C 238.785156 98.855469 213.921875 88.550781 187.5 88.550781 Z M 187.5 88.550781 "/></clipPath><clipPath id="759d34b6fd"><path d="M 90.339844 90.339844 L 284.589844 90.339844 L 284.589844 284.589844 L 90.339844 284.589844 Z M 90.339844 90.339844 "/></clipPath><clipPath id="372c996a6b"><path d="M 102 190 L 114 190 L 114 202 L 102 202 Z M 102 190 "/></clipPath><clipPath id="de5c55deb5"><path d="M 101.3125 193.042969 L 111.667969 188.648438 L 115.769531 198.316406 L 105.414062 202.707031 Z M 101.3125 193.042969 "/></clipPath><clipPath id="f3bcbd45b7"><path d="M 101.3125 193.042969 L 111.667969 188.648438 L 115.769531 198.316406 L 105.414062 202.707031 Z M 101.3125 193.042969 "/></clipPath><clipPath id="c1699c0356"><path d="M 261 190 L 273 190 L 273 202 L 261 202 Z M 261 190 "/></clipPath><clipPath id="2b98a2f850"><path d="M 269.933594 203.570312 L 259.582031 199.167969 L 263.695312 189.503906 L 274.046875 193.910156 Z M 269.933594 203.570312 "/></clipPath><clipPath id="9f813398f6"><path d="M 269.933594 203.570312 L 259.582031 199.167969 L 263.695312 189.503906 L 274.046875 193.910156 Z M 269.933594 203.570312 "/></clipPath><clipPath id="b7a4b96379"><path d="M 125 131.417969 L 249.992188 131.417969 L 249.992188 252 L 125 252 Z M 125 131.417969 "/></clipPath></defs><g id="ca32c8881f"><rect x="0" width="375" y="0" height="374.999991" style="fill:#ffffff;fill-opacity:1;stroke:none;"/><rect x="0" width="375" y="0" height="374.999991" style="fill:#ffffff;fill-opacity:1;stroke:none;"/><g clip-rule="nonzero" clip-path="url(#eb786d75e9)"><g clip-rule="nonzero" clip-path="url(#76d0595baf)"><path style=" stroke:none;fill-rule:nonzero;fill:#004aad;fill-opacity:1;" d="M 82.238281 82.238281 L 292.761719 82.238281 L 292.761719 292.761719 L 82.238281 292.761719 Z M 82.238281 82.238281 "/></g></g><g clip-rule="nonzero" clip-path="url(#759d34b6fd)"><path style=" stroke:none;fill-rule:nonzero;fill:#004aad;fill-opacity:1;" d="M 187.429688 284.589844 C 133.921875 284.589844 90.339844 241.003906 90.339844 187.429688 C 90.339844 133.855469 133.921875 90.339844 187.429688 90.339844 C 240.941406 90.339844 284.523438 133.921875 284.523438 187.429688 C 284.589844 241.003906 241.003906 284.589844 187.429688 284.589844 Z M 187.429688 91.980469 C 134.777344 91.980469 91.980469 134.777344 91.980469 187.429688 C 91.980469 240.085938 134.84375 282.945312 187.429688 282.945312 C 240.019531 282.945312 282.945312 240.085938 282.945312 187.429688 C 282.945312 134.777344 240.085938 91.980469 187.429688 91.980469 Z M 187.429688 91.980469 "/></g><g style="fill:#004aad;fill-opacity:1;"><g transform="translate(119.778584, 231.129663)"><path style="stroke:none" d="M 3.296875 5.34375 L 4.984375 3.109375 L 3.25 0.296875 L 0.515625 0.828125 L 0 0 L 8.703125 -1.578125 L 9.125 -0.890625 L 3.828125 6.171875 Z M 5.5625 2.390625 L 7.21875 0.265625 C 7.425781 -0.015625 7.691406 -0.335938 8.015625 -0.703125 C 7.671875 -0.578125 7.273438 -0.460938 6.828125 -0.359375 L 4.171875 0.140625 Z M 5.5625 2.390625 "/></g></g><g style="fill:#004aad;fill-opacity:1;"><g transform="translate(126.304962, 240.983841)"><path style="stroke:none" d="M 2.359375 2.796875 L 1.75 2.0625 L 7.375 -2.6875 L 5.6875 -4.671875 L 6.328125 -5.21875 L 10.296875 -0.515625 L 9.65625 0.03125 L 7.984375 -1.953125 Z M 2.359375 2.796875 "/></g></g><g style="fill:#004aad;fill-opacity:1;"><g transform="translate(133.563347, 249.094276)"><path style="stroke:none" d="M 2.71875 2.4375 L 2.015625 1.796875 L 6.921875 -3.6875 L 4.96875 -5.421875 L 5.53125 -6.046875 L 10.125 -1.9375 L 9.5625 -1.3125 L 7.625 -3.046875 Z M 2.71875 2.4375 "/></g></g><g style="fill:#004aad;fill-opacity:1;"><g transform="translate(141.903416, 256.197911)"><path style="stroke:none" d="M 9.15625 1 C 8.445312 2.101562 7.609375 2.789062 6.640625 3.0625 C 5.679688 3.332031 4.703125 3.148438 3.703125 2.515625 C 2.691406 1.859375 2.109375 1.039062 1.953125 0.0625 C 1.804688 -0.914062 2.097656 -1.96875 2.828125 -3.09375 C 3.546875 -4.21875 4.378906 -4.910156 5.328125 -5.171875 C 6.273438 -5.429688 7.253906 -5.234375 8.265625 -4.578125 C 9.265625 -3.929688 9.835938 -3.113281 9.984375 -2.125 C 10.140625 -1.144531 9.863281 -0.101562 9.15625 1 Z M 3.65625 -2.53125 C 3.050781 -1.59375 2.789062 -0.753906 2.875 -0.015625 C 2.96875 0.710938 3.394531 1.320312 4.15625 1.8125 C 4.925781 2.300781 5.660156 2.429688 6.359375 2.203125 C 7.054688 1.972656 7.707031 1.390625 8.3125 0.453125 C 8.90625 -0.472656 9.160156 -1.300781 9.078125 -2.03125 C 8.992188 -2.757812 8.566406 -3.367188 7.796875 -3.859375 C 7.035156 -4.347656 6.300781 -4.476562 5.59375 -4.25 C 4.894531 -4.03125 4.25 -3.457031 3.65625 -2.53125 Z M 3.65625 -2.53125 "/></g></g><g style="fill:#004aad;fill-opacity:1;"><g transform="translate(153.54485, 263.142172)"><path style="stroke:none" d="M 3.25 -2.296875 L 1.90625 0.828125 L 1.03125 0.453125 L 4.28125 -7.078125 L 6.34375 -6.1875 C 7.269531 -5.789062 7.878906 -5.316406 8.171875 -4.765625 C 8.460938 -4.222656 8.453125 -3.59375 8.140625 -2.875 C 7.710938 -1.882812 6.914062 -1.4375 5.75 -1.53125 L 6.34375 2.734375 L 5.3125 2.296875 L 4.828125 -1.625 Z M 3.578125 -3.0625 L 4.78125 -2.546875 C 5.394531 -2.285156 5.898438 -2.210938 6.296875 -2.328125 C 6.703125 -2.441406 7.007812 -2.738281 7.21875 -3.21875 C 7.4375 -3.71875 7.441406 -4.140625 7.234375 -4.484375 C 7.035156 -4.835938 6.613281 -5.15625 5.96875 -5.4375 L 4.828125 -5.921875 Z M 3.578125 -3.0625 "/></g></g><g style="fill:#004aad;fill-opacity:1;"><g transform="translate(164.414115, 267.500374)"><path style="stroke:none" d="M 7.296875 1.84375 L 6.25 1.5625 L 3.578125 -6.1875 L 3.53125 -6.203125 C 3.394531 -5.410156 3.242188 -4.6875 3.078125 -4.03125 L 1.9375 0.484375 L 1.09375 0.28125 L 3.09375 -7.671875 L 4.140625 -7.421875 L 6.796875 0.328125 L 6.84375 0.34375 C 6.851562 0.238281 6.910156 -0.0820312 7.015625 -0.625 C 7.128906 -1.164062 7.222656 -1.546875 7.296875 -1.765625 L 8.4375 -6.328125 L 9.296875 -6.109375 Z M 7.296875 1.84375 "/></g></g><g style="fill:#004aad;fill-opacity:1;"><g transform="translate(177.359097, 270.293593)"><path style="stroke:none" d="M 5.6875 0.515625 L 1.125 0.09375 L 1.859375 -8.078125 L 6.421875 -7.65625 L 6.34375 -6.8125 L 2.71875 -7.140625 L 2.484375 -4.5 L 5.890625 -4.203125 L 5.8125 -3.375 L 2.40625 -3.671875 L 2.140625 -0.671875 L 5.765625 -0.34375 Z M 5.6875 0.515625 "/></g></g><g style="fill:#004aad;fill-opacity:1;"><g transform="translate(188.259636, 270.955457)"><path style="stroke:none" d="M 3 -4.265625 L 4.984375 -8.46875 L 6 -8.515625 L 3.546875 -3.359375 L 3.703125 -0.1875 L 2.734375 -0.140625 L 2.578125 -3.28125 L -0.421875 -8.1875 L 0.625 -8.234375 Z M 3 -4.265625 "/></g></g><g style="fill:#004aad;fill-opacity:1;"><g transform="translate(199.097376, 270.030108)"><path style="stroke:none" d=""/></g></g><g style="fill:#004aad;fill-opacity:1;"><g transform="translate(206.422605, 268.626742)"><path style="stroke:none" d="M 6.015625 -1.828125 L 4.296875 -4.03125 L 1.140625 -3.078125 L 0.921875 -0.28125 L 0 0 L 0.703125 -8.8125 L 1.484375 -9.046875 L 6.953125 -2.109375 Z M 3.75 -4.75 L 2.109375 -6.90625 C 1.890625 -7.175781 1.648438 -7.515625 1.390625 -7.921875 C 1.410156 -7.566406 1.414062 -7.160156 1.40625 -6.703125 L 1.21875 -3.984375 Z M 3.75 -4.75 "/></g></g><g style="fill:#004aad;fill-opacity:1;"><g transform="translate(217.622734, 264.851144)"><path style="stroke:none" d="M 3.3125 -1.5625 L 2.4375 -1.15625 L -0.703125 -7.8125 L -3.0625 -6.703125 L -3.421875 -7.46875 L 2.15625 -10.09375 L 2.515625 -9.328125 L 0.171875 -8.21875 Z M 3.3125 -1.5625 "/></g></g><g style="fill:#004aad;fill-opacity:1;"><g transform="translate(227.22716, 259.918291)"><path style="stroke:none" d=""/></g></g><g style="fill:#004aad;fill-opacity:1;"><g transform="translate(233.430019, 255.839227)"><path style="stroke:none" d="M 0.875 -0.703125 L -4.25 -7.109375 L -3.5 -7.703125 L 1.09375 -1.96875 L 3.921875 -4.234375 L 4.453125 -3.5625 Z M 0.875 -0.703125 "/></g></g><g style="fill:#004aad;fill-opacity:1;"><g transform="translate(241.462422, 249.067061)"><path style="stroke:none" d="M 4.296875 -4.578125 L 1.6875 -5.625 L -0.5625 -3.21875 L 0.65625 -0.703125 L 0 0 L -3.8125 -7.984375 L -3.25 -8.578125 L 4.96875 -5.296875 Z M 0.859375 -6 L -1.625 -7.03125 C -1.957031 -7.164062 -2.335938 -7.335938 -2.765625 -7.546875 C -2.566406 -7.253906 -2.351562 -6.898438 -2.125 -6.484375 L -0.953125 -4.0625 Z M 0.859375 -6 "/></g></g><g style="fill:#004aad;fill-opacity:1;"><g transform="translate(249.429693, 240.174135)"><path style="stroke:none" d="M 4.515625 -6.9375 L 4 -6.15625 L -1.5 -7.75 C -1.75 -7.8125 -2.054688 -7.90625 -2.421875 -8.03125 C -2.785156 -8.15625 -3 -8.234375 -3.0625 -8.265625 C -2.695312 -7.929688 -2.316406 -7.53125 -1.921875 -7.0625 L 1.796875 -2.75 L 1.265625 -1.953125 L -6.796875 -4.59375 L -6.25 -5.4375 L -1.28125 -3.78125 C -0.59375 -3.53125 0.0078125 -3.285156 0.53125 -3.046875 C 0.0195312 -3.503906 -0.457031 -3.992188 -0.90625 -4.515625 L -4.28125 -8.46875 L -3.71875 -9.3125 L 1.328125 -7.859375 C 1.921875 -7.691406 2.550781 -7.460938 3.21875 -7.171875 C 2.820312 -7.515625 2.359375 -7.976562 1.828125 -8.5625 L -1.71875 -12.40625 L -1.171875 -13.25 Z M 4.515625 -6.9375 "/></g></g><g clip-rule="nonzero" clip-path="url(#372c996a6b)"><g clip-rule="nonzero" clip-path="url(#de5c55deb5)"><g clip-rule="nonzero" clip-path="url(#f3bcbd45b7)"><path style=" stroke:none;fill-rule:nonzero;fill:#004aad;fill-opacity:1;" d="M 106.414062 190.917969 L 109.324219 193.421875 L 113.039062 192.449219 L 111.554688 195.992188 L 113.632812 199.21875 L 109.804688 198.902344 L 107.371094 201.875 L 106.488281 198.140625 L 102.910156 196.742188 L 106.195312 194.75 Z M 106.414062 190.917969 "/><path style=" stroke:none;fill-rule:nonzero;fill:#004aad;fill-opacity:1;" d="M 106.378906 190.894531 L 109.289062 193.402344 L 113.003906 192.425781 L 111.519531 195.96875 L 113.59375 199.199219 L 109.765625 198.882812 L 107.335938 201.855469 L 106.453125 198.117188 L 102.875 196.722656 L 106.15625 194.730469 Z M 106.378906 190.894531 "/><path style=" stroke:none;fill-rule:nonzero;fill:#004aad;fill-opacity:1;" d="M 106.378906 190.894531 L 109.289062 193.402344 L 113.003906 192.425781 L 111.519531 195.96875 L 113.59375 199.199219 L 109.765625 198.882812 L 107.335938 201.855469 L 106.453125 198.117188 L 102.875 196.722656 L 106.15625 194.730469 Z M 106.378906 190.894531 "/><path style=" stroke:none;fill-rule:nonzero;fill:#004aad;fill-opacity:1;" d="M 106.378906 190.894531 L 109.289062 193.402344 L 113.003906 192.425781 L 111.519531 195.96875 L 113.59375 199.199219 L 109.765625 198.882812 L 107.335938 201.855469 L 106.453125 198.117188 L 102.875 196.722656 L 106.15625 194.730469 Z M 106.378906 190.894531 "/></g></g></g><g clip-rule="nonzero" clip-path="url(#c1699c0356)"><g clip-rule="nonzero" clip-path="url(#2b98a2f850)"><g clip-rule="nonzero" clip-path="url(#9f813398f6)"><path style=" stroke:none;fill-rule:nonzero;fill:#004aad;fill-opacity:1;" d="M 264.863281 201.375 L 264.648438 197.539062 L 261.367188 195.542969 L 264.949219 194.152344 L 265.832031 190.417969 L 268.261719 193.390625 L 272.089844 193.078125 L 270.011719 196.308594 L 271.488281 199.851562 L 267.777344 198.871094 Z M 264.863281 201.375 "/><path style=" stroke:none;fill-rule:nonzero;fill:#004aad;fill-opacity:1;" d="M 264.875 201.414062 L 264.65625 197.582031 L 261.375 195.585938 L 264.957031 194.195312 L 265.84375 190.457031 L 268.269531 193.433594 L 272.097656 193.117188 L 270.019531 196.347656 L 271.5 199.890625 L 267.789062 198.914062 Z M 264.875 201.414062 "/><path style=" stroke:none;fill-rule:nonzero;fill:#004aad;fill-opacity:1;" d="M 264.875 201.414062 L 264.65625 197.582031 L 261.375 195.585938 L 264.957031 194.195312 L 265.84375 190.457031 L 268.269531 193.433594 L 272.097656 193.117188 L 270.019531 196.347656 L 271.5 199.890625 L 267.789062 198.914062 Z M 264.875 201.414062 "/><path style=" stroke:none;fill-rule:nonzero;fill:#004aad;fill-opacity:1;" d="M 264.875 201.414062 L 264.65625 197.582031 L 261.375 195.585938 L 264.957031 194.195312 L 265.84375 190.457031 L 268.269531 193.433594 L 272.097656 193.117188 L 270.019531 196.347656 L 271.5 199.890625 L 267.789062 198.914062 Z M 264.875 201.414062 "/></g></g></g><g clip-rule="nonzero" clip-path="url(#b7a4b96379)"><path style=" stroke:none;fill-rule:nonzero;fill:#004aad;fill-opacity:1;" d="M 160.636719 132.472656 C 161.203125 132.089844 161.699219 131.421875 162.46875 131.613281 C 162.078125 132.472656 161.1875 132.949219 160.746094 133.769531 C 158.492188 139.671875 154.320312 139.851562 154.105469 142.613281 C 155.820312 141.613281 157.40625 140.390625 159.171875 139.46875 C 159.738281 139.203125 160.210938 138.773438 160.5625 138.257812 C 164.554688 132.84375 171.109375 131.730469 177.644531 133.320312 C 178.003906 133.363281 178.113281 133.683594 178.195312 133.984375 C 177.183594 134.125 176.152344 134.078125 175.140625 134.226562 C 171.089844 135.421875 170 140.777344 163.445312 139.722656 C 162.523438 139.75 161.625 139.484375 160.710938 139.5 C 158.742188 140.472656 154.761719 142.972656 153.832031 143.941406 C 154.492188 144.292969 155.253906 144.1875 155.96875 144.152344 C 157.09375 144.015625 157.988281 143.285156 158.964844 142.792969 C 162.199219 141.105469 162.414062 141.546875 166.746094 142.085938 C 168.300781 142.398438 169.890625 142.132812 171.460938 142.210938 C 171.433594 142.308594 171.371094 142.503906 171.34375 142.605469 C 170.460938 142.914062 169.519531 142.957031 168.601562 143.105469 C 166.769531 143.789062 165.203125 145.113281 163.285156 145.578125 C 159.542969 145.660156 155.816406 145.082031 152.074219 145.214844 C 149.539062 147.285156 147.097656 149.5 145.003906 152.027344 C 146.539062 153.011719 149.246094 150.015625 150.492188 149.226562 C 151.5625 148.4375 152.902344 148.113281 154.214844 148.085938 C 160.882812 147.5 157.308594 147.972656 161.4375 147.074219 C 161.433594 147.207031 161.429688 147.464844 161.425781 147.59375 C 160.613281 147.988281 159.71875 148.171875 158.902344 148.554688 C 157.398438 149.378906 155.230469 151.863281 153.761719 152.050781 C 142.792969 153.742188 144.09375 153.199219 143.421875 153.9375 C 141.296875 156.546875 138.621094 160.710938 138.324219 161.738281 C 140.523438 161.703125 141.96875 157.890625 144.097656 156.796875 C 146.765625 155.304688 147.960938 156.113281 153.121094 153.570312 C 153.136719 153.695312 153.167969 153.949219 153.183594 154.074219 C 152.378906 154.816406 151.242188 155.082031 150.5 155.902344 C 148.769531 157.800781 147.945312 159.394531 146.390625 160.011719 C 136.773438 163.5 137.5 162.988281 137.023438 164.058594 C 135.785156 166.804688 134.570312 169.59375 133.878906 172.53125 C 135.546875 172.589844 136.449219 168.644531 138.328125 166.722656 C 140.28125 165.03125 142.890625 164.445312 144.976562 162.960938 C 145.605469 162.523438 146.199219 162.039062 146.832031 161.605469 C 146.847656 161.863281 146.96875 162.167969 146.734375 162.367188 C 146.125 163.070312 145.257812 163.515625 144.734375 164.300781 C 143.691406 165.871094 143.132812 167.796875 141.714844 169.097656 C 139.070312 170.804688 133.902344 173.878906 133.273438 174.636719 C 132.640625 177.238281 132.285156 179.890625 131.957031 182.542969 C 133.246094 182.382812 133.421875 178.648438 135.082031 176.421875 C 136.679688 174.625 138.96875 173.667969 140.726562 172.050781 C 141.171875 171.640625 141.199219 170.917969 141.769531 170.613281 C 141.835938 171.515625 141.109375 172.183594 140.945312 173.035156 C 139.757812 178.636719 138.558594 178.21875 133.5 183.101562 C 132.980469 183.617188 132.339844 184.023438 131.917969 184.632812 C 131.773438 186.34375 131.839844 191.589844 132.292969 193.59375 L 132.613281 193.59375 C 132.992188 192.945312 133.324219 192.222656 133.304688 191.453125 C 133.332031 186.035156 134.367188 186.636719 138.324219 182.230469 C 138.921875 181.710938 139.105469 180.921875 139.285156 180.1875 C 139.371094 180.160156 139.535156 180.109375 139.621094 180.082031 C 139.726562 180.960938 139.183594 181.722656 139.1875 182.585938 C 138.902344 188.265625 138.21875 186.082031 132.546875 195.199219 C 132.886719 198.125 133.703125 200.992188 134.605469 203.796875 C 134.667969 204.15625 135.25 203.953125 135.234375 203.644531 C 135.550781 202.140625 135.191406 200.617188 135.050781 199.117188 C 135 198.59375 134.742188 198.058594 134.949219 197.535156 C 135.632812 195.054688 137.53125 193.175781 138.566406 190.867188 C 138.828125 190.359375 138.480469 189.558594 139.019531 189.246094 C 139.808594 199.273438 139.917969 193.054688 135.621094 204.914062 C 135.53125 205.238281 135.335938 205.582031 135.429688 205.925781 C 136.429688 208.710938 137.839844 211.324219 139.273438 213.902344 C 139.351562 213.925781 139.503906 213.976562 139.582031 214 C 139.664062 213.132812 139.753906 212.207031 139.378906 211.394531 C 137.207031 206.351562 138.542969 206.445312 140.390625 200.378906 C 140.585938 199.640625 140.296875 198.878906 140.472656 198.140625 C 140.753906 198.554688 140.976562 199.019531 140.984375 199.53125 C 141.101562 201.253906 143.152344 205.035156 142.175781 207.320312 C 141.230469 209.886719 140.777344 212.585938 140.160156 215.238281 C 142.296875 218.671875 145.613281 222.675781 146.484375 223.265625 C 146.703125 221.070312 143.871094 218.539062 143.796875 216.207031 C 143.847656 214.023438 144.449219 211.890625 144.578125 209.714844 C 144.671875 209.019531 144.304688 208.398438 144.230469 207.726562 C 145.140625 208.148438 145.035156 209.378906 145.523438 210.136719 C 148.699219 214.875 147.890625 218.675781 147.425781 223.617188 C 147.429688 223.890625 147.265625 224.242188 147.53125 224.449219 C 148.332031 225.25 153.660156 230.335938 154.726562 230.308594 C 154.753906 228.4375 152.105469 226.183594 150.964844 224.578125 C 149.824219 222.433594 150.363281 219.933594 150.023438 217.632812 C 149.976562 216.882812 149.34375 216.339844 149.308594 215.589844 C 150.175781 216.214844 150.429688 217.332031 151.195312 218.054688 C 152.644531 219.492188 153.652344 221.3125 154.460938 223.171875 C 154.96875 224.796875 155.03125 226.507812 155.296875 228.179688 C 155.523438 231.8125 155.71875 231.167969 156.75 231.960938 C 158.910156 233.308594 161.113281 234.621094 163.449219 235.636719 C 163.386719 235.382812 163.433594 235.074219 163.246094 234.871094 C 162.148438 233.570312 160.515625 232.90625 159.273438 231.777344 C 157.777344 229.722656 157.027344 224.960938 156.410156 223.46875 C 156.128906 222.964844 155.691406 222.574219 155.410156 222.066406 C 156.136719 222.128906 156.5 222.8125 156.953125 223.289062 C 157.484375 223.925781 160.191406 225.539062 161.707031 228.332031 C 163.097656 231.441406 164.132812 236.0625 165.328125 236.535156 C 168.167969 237.738281 171.101562 238.734375 174.097656 239.472656 C 174.125 239.351562 174.1875 239.113281 174.21875 238.996094 C 173.460938 237.792969 171.09375 237.058594 168.925781 235.835938 C 166.542969 234.5 166.699219 232.164062 164.972656 229.625 C 164.488281 228.835938 163.40625 228.582031 163.109375 227.652344 C 164.179688 227.804688 164.949219 228.632812 165.867188 229.125 C 166.894531 229.757812 168.066406 230.132812 169.054688 230.835938 C 172.160156 233.371094 173.433594 237.492188 176.578125 239.984375 C 177.851562 240.308594 182.949219 241.097656 183.867188 240.933594 C 183.847656 239.417969 180.558594 239.453125 178.160156 238.019531 C 176.085938 236.640625 175.671875 233.707031 173.402344 232.550781 C 173.054688 232.355469 172.75 232.097656 172.542969 231.757812 C 173.53125 231.839844 174.421875 232.347656 175.371094 232.609375 C 176.714844 233.113281 178.234375 233.175781 179.457031 233.992188 C 182.152344 235.800781 183.394531 239.050781 185.988281 240.976562 C 186.425781 241.183594 186.945312 241.066406 187.417969 241.105469 C 187.984375 241.058594 188.644531 241.230469 189.128906 240.847656 C 189.992188 240.285156 190.511719 239.371094 191.226562 238.65625 C 196.140625 232.3125 195.925781 233.921875 199.515625 232.621094 C 200.453125 232.308594 201.371094 231.859375 202.367188 231.757812 C 201.992188 232.496094 201.082031 232.65625 200.527344 233.21875 C 199.136719 234.621094 198.542969 236.667969 196.941406 237.890625 C 195.390625 238.96875 193.425781 239.117188 191.765625 239.953125 C 191.378906 240.101562 191.179688 240.46875 190.960938 240.792969 C 191.410156 241.152344 191.976562 240.882812 192.488281 240.882812 C 198.992188 240.09375 198.242188 240.105469 199.117188 239.285156 C 201.496094 236.945312 202.835938 233.773438 205.191406 231.414062 C 206.25 230.339844 207.734375 229.925781 208.992188 229.152344 C 209.898438 228.632812 210.707031 227.921875 211.71875 227.601562 C 211.714844 227.726562 211.703125 227.976562 211.695312 228.101562 C 210.929688 228.707031 210.082031 229.285156 209.613281 230.171875 C 208.777344 231.503906 208.421875 233.078125 207.558594 234.390625 C 206.109375 236.722656 201.078125 237.351562 200.621094 239.3125 C 202.3125 239.464844 208.28125 237.105469 209.945312 236.375 C 212.425781 232.878906 211.539062 227.78125 217.425781 223.828125 C 218.199219 223.332031 218.484375 222.179688 219.484375 222.058594 C 219.210938 222.703125 218.546875 223.117188 218.375 223.8125 C 217.0625 228.753906 216.6875 230.234375 215.707031 231.71875 C 214.5 232.828125 212.925781 233.480469 211.816406 234.703125 C 211.601562 234.941406 211.542969 235.265625 211.460938 235.5625 C 213.835938 234.730469 218.769531 231.726562 219.25 231.09375 C 219.53125 230.160156 219.703125 226.632812 220.199219 224.175781 C 220.527344 222.574219 221.417969 221.167969 222.285156 219.808594 C 222.917969 218.761719 223.964844 218.039062 224.539062 216.953125 C 224.792969 216.457031 225.105469 215.980469 225.53125 215.613281 C 225.5625 215.710938 225.628906 215.898438 225.664062 215.996094 C 224.125 217.992188 225.355469 218.953125 224.457031 223.21875 C 224.320312 223.996094 223.976562 224.734375 223.429688 225.304688 C 220.171875 228.863281 220.324219 229.191406 220.246094 230.335938 C 221.566406 229.921875 225.867188 226.03125 227.589844 224.261719 C 227.324219 223.085938 227.410156 221.871094 227.207031 220.6875 C 226.960938 217.152344 226.644531 216.074219 228.367188 211.957031 C 228.757812 210.945312 229.558594 210.144531 229.839844 209.085938 C 230.058594 208.59375 230.066406 207.820312 230.726562 207.71875 C 229.507812 210.5 231.847656 214.949219 230.882812 217.480469 C 230.097656 219.382812 228.535156 221.019531 228.398438 223.152344 C 229.445312 222.800781 233.292969 217.570312 234.664062 215.398438 C 234.722656 214.128906 233.464844 209.753906 233.351562 209.199219 C 232.78125 206.535156 232.023438 207.449219 232.835938 203.4375 C 233.207031 201.613281 233.601562 202.164062 234.117188 198.464844 C 234.214844 198.429688 234.410156 198.359375 234.511719 198.328125 C 234.511719 198.976562 234.328125 199.632812 234.484375 200.273438 C 235.148438 202.414062 236.160156 204.449219 236.59375 206.65625 C 236.914062 208.574219 235.910156 210.335938 235.289062 212.078125 C 235.25 212.730469 235.097656 213.492188 235.511719 214.054688 C 237.066406 211.539062 238.363281 208.863281 239.453125 206.113281 C 239.695312 205.683594 239.394531 205.230469 239.277344 204.8125 C 238.328125 202.34375 237.429688 199.839844 236.191406 197.5 C 234.652344 195.09375 236.042969 192.90625 235.828125 189.394531 C 235.929688 189.382812 236.128906 189.347656 236.226562 189.332031 C 236.238281 189.769531 236.222656 190.210938 236.285156 190.640625 C 237.285156 193.207031 239.542969 195.1875 240.027344 197.964844 C 239.878906 199.359375 238.90625 204.523438 240.269531 203.941406 C 240.609375 202.910156 242.847656 195.742188 242.183594 194.878906 C 236.710938 186.351562 236.496094 188.007812 235.933594 184.839844 C 235.726562 183.945312 235.894531 183.011719 235.671875 182.121094 C 235.542969 181.414062 235.144531 180.65625 235.519531 179.960938 C 235.792969 180.679688 235.886719 181.511719 236.445312 182.09375 C 237.566406 183.324219 238.828125 184.425781 239.945312 185.664062 C 242.867188 189.242188 240.757812 191.027344 242.214844 193.40625 C 242.300781 193.621094 242.449219 193.679688 242.664062 193.574219 C 242.953125 192.210938 243.242188 187.179688 243.011719 184.613281 C 236.769531 178.203125 235.414062 179.480469 234.015625 173.167969 C 233.808594 172.277344 233.171875 171.535156 233.144531 170.597656 C 233.742188 170.980469 233.796875 171.78125 234.359375 172.203125 C 236.167969 173.804688 238.539062 174.761719 240.039062 176.722656 C 241.53125 179.007812 241.640625 182.199219 242.867188 182.355469 C 242.871094 179.929688 241.6875 174.769531 241.667969 174.582031 C 238.910156 172.546875 235.902344 170.882812 233.058594 168.980469 C 231.714844 167.605469 231.160156 165.675781 230.054688 164.132812 C 229.382812 163.378906 228.519531 162.808594 227.914062 161.996094 C 228.023438 161.882812 228.136719 161.773438 228.25 161.660156 C 232.742188 165.386719 235.917969 164.949219 237.640625 168.117188 C 238.304688 169.054688 239.777344 172.789062 241.050781 172.515625 C 240.234375 169.34375 239.007812 166.269531 237.496094 163.363281 C 234.863281 162.144531 232.054688 161.328125 229.335938 160.304688 C 228.664062 160.035156 227.894531 159.898438 227.386719 159.34375 C 226.277344 158.214844 225.359375 156.914062 224.273438 155.765625 C 223.605469 155.070312 222.632812 154.816406 221.882812 154.230469 C 221.65625 154.089844 221.710938 153.789062 221.65625 153.570312 C 222.808594 153.902344 223.777344 154.691406 224.957031 154.957031 C 226.886719 155.582031 228.976562 155.769531 230.78125 156.761719 C 233.222656 158.09375 234.242188 161.605469 236.59375 161.71875 C 235.28125 158.9375 233.425781 156.4375 231.574219 153.992188 C 231.082031 153.117188 227.410156 153.074219 221.082031 152.039062 C 219.890625 151.839844 217.859375 149.894531 216.601562 148.90625 C 215.789062 148.269531 214.726562 148.171875 213.820312 147.738281 C 213.546875 147.640625 213.457031 147.34375 213.347656 147.105469 C 214.535156 147.167969 215.628906 147.75 216.820312 147.773438 C 218.503906 147.996094 220.214844 147.992188 221.902344 148.191406 C 225.441406 148.671875 226.382812 152.257812 229.785156 152.25 C 229.789062 151.769531 229.425781 151.441406 229.136719 151.105469 C 227.117188 149.03125 225.105469 146.917969 222.773438 145.195312 C 218.882812 145.132812 212.183594 145.871094 211.207031 145.480469 C 209.816406 144.980469 208.558594 144.191406 207.253906 143.519531 C 206.164062 142.8125 204.800781 143.058594 203.609375 142.644531 C 203.597656 142.523438 203.570312 142.28125 203.558594 142.15625 C 210.066406 142.414062 210.609375 141.300781 213.269531 141.6875 C 216.558594 142.453125 218.058594 145.046875 221.027344 143.957031 C 219.921875 142.734375 215.765625 140.304688 214.316406 139.515625 C 213.375 139.351562 209.679688 140.464844 206.683594 139.167969 C 204.355469 138.074219 202.945312 135.722656 200.664062 134.5625 C 199.421875 133.886719 197.960938 134.320312 196.648438 133.921875 C 197.304688 132.929688 198.671875 133.15625 199.683594 132.863281 C 212.308594 131.929688 213.375 138.195312 215.433594 139.285156 C 216.957031 140.167969 218.476562 141.066406 219.914062 142.085938 C 220.199219 142.292969 220.507812 142.460938 220.84375 142.582031 C 220.460938 139.925781 216.460938 139.375 214.449219 134.402344 C 213.75 132.609375 212.617188 132.542969 212.550781 131.5625 C 213.296875 131.507812 213.78125 132.132812 214.347656 132.511719 C 215.308594 133.292969 216.570312 133.507812 217.582031 134.207031 C 220.640625 136.066406 221.320312 141.199219 222.144531 143.59375 C 222.777344 144.390625 223.757812 144.828125 224.460938 145.570312 C 225.746094 146.636719 226.921875 147.820312 228.132812 148.964844 C 228.65625 149.515625 229.125 150.128906 229.753906 150.566406 C 229.84375 147.367188 225.363281 145.398438 224.847656 141.734375 C 224.6875 140.414062 224.464844 138.914062 223.328125 138.050781 C 222.691406 137.390625 221.632812 137.054688 221.363281 136.109375 C 222.269531 135.894531 222.8125 136.683594 223.375 137.230469 C 224.695312 138.605469 226.40625 139.53125 227.746094 140.894531 C 231.164062 144.554688 230.386719 149.414062 230.796875 151.816406 C 232.433594 153.855469 234.058594 155.910156 235.441406 158.140625 C 235.746094 158.582031 235.945312 159.144531 236.464844 159.390625 C 236.613281 156.738281 233.671875 154.726562 233.671875 150.609375 C 233.675781 149.328125 233.675781 148.023438 233.238281 146.800781 C 232.734375 145.433594 230.949219 144.335938 230.851562 143.417969 C 231.074219 143.40625 231.296875 143.394531 231.519531 143.386719 C 232.074219 143.964844 232.566406 144.59375 233.015625 145.25 C 234.496094 147.125 236.671875 148.589844 237.351562 150.992188 C 237.976562 153.847656 237.128906 156.75 237.238281 159.628906 C 237.039062 161.792969 238.421875 162.359375 241.09375 169.863281 C 241.199219 169.886719 241.398438 169.9375 241.503906 169.960938 C 241.660156 167.03125 239.523438 164.738281 240.542969 160.839844 C 240.734375 159.671875 241.039062 158.488281 240.871094 157.296875 C 240.476562 155.683594 239.246094 154.453125 238.730469 152.886719 C 238.960938 152.886719 239.304688 152.695312 239.480469 152.941406 C 240.546875 154.234375 241.179688 155.808594 242.066406 157.21875 C 242.980469 158.878906 243.980469 160.625 244 162.574219 C 243.878906 165.703125 242.734375 168.648438 242.019531 171.667969 C 241.667969 173.117188 242.851562 174.578125 243.386719 180.058594 C 243.5 180.089844 243.734375 180.144531 243.851562 180.175781 C 244.042969 178.160156 243.355469 176.136719 243.796875 174.128906 C 244.160156 172.257812 245.441406 170.722656 245.828125 168.855469 C 246.089844 167.082031 244.933594 165.53125 244.789062 163.804688 C 244.921875 163.808594 245.199219 163.808594 245.332031 163.8125 C 245.824219 164.507812 248.183594 170.742188 247.566406 174.273438 C 246.539062 177.738281 244.097656 181.019531 243.707031 182.601562 C 244.058594 185.90625 243.878906 189.238281 243.601562 192.539062 C 245.164062 192.390625 244.078125 187.394531 246.589844 184.023438 C 249.996094 179.257812 248.222656 179.101562 248.5625 175.5625 C 248.691406 175.574219 248.945312 175.597656 249.070312 175.609375 C 249.554688 177.085938 249.507812 178.664062 249.625 180.199219 C 249.878906 181.515625 249.808594 182.859375 249.816406 184.191406 C 249.914062 186.59375 247.5625 189.25 245.789062 191.488281 C 243.703125 194.179688 243.328125 193.59375 243.09375 195.960938 C 242.753906 198.183594 242.09375 200.339844 241.605469 202.527344 C 242.621094 202.332031 242.84375 199.078125 244.304688 197.058594 C 245.273438 195.355469 247.894531 194.480469 248.574219 192.082031 C 248.84375 191.085938 248.925781 190.039062 249.261719 189.058594 C 249.414062 188.765625 249.882812 189.023438 249.808594 189.328125 C 249.632812 191.078125 249.085938 192.777344 248.945312 194.539062 C 247.933594 198.59375 248.167969 198.21875 245.714844 200.421875 C 244.371094 201.65625 242.890625 202.726562 241.441406 203.835938 C 240.839844 204.246094 240.699219 205.007812 240.449219 205.644531 C 239.726562 207.765625 238.621094 209.726562 237.769531 211.785156 C 239.5 211.683594 239.746094 206.484375 243.53125 205.390625 C 247.925781 203.960938 246.757812 201.566406 248.136719 200.851562 C 248.242188 201.292969 248.1875 201.753906 248.007812 202.171875 C 244.398438 211.082031 243.476562 209.492188 237.042969 212.996094 C 236.785156 213.324219 234.550781 217.511719 231.164062 221.433594 C 231.109375 221.566406 231.003906 221.828125 230.953125 221.957031 C 233.542969 221.164062 233.804688 217.9375 237.015625 216.539062 C 238.253906 216.050781 239.636719 215.902344 240.765625 215.152344 C 242.800781 213.777344 241.964844 214.097656 243.824219 211.523438 C 243.953125 211.527344 244.207031 211.535156 244.332031 211.539062 C 244.425781 212.785156 243.464844 213.722656 242.917969 214.753906 C 239.175781 220.628906 239.8125 219.527344 230.742188 222.957031 C 230.191406 223.179688 229.5625 223.292969 229.140625 223.742188 C 224.097656 229.078125 222.828125 228.992188 222.640625 230.03125 C 225.589844 229.425781 226.917969 226.109375 229.832031 225.449219 C 231.347656 225.074219 233.003906 225.679688 234.460938 224.972656 C 235.257812 224.484375 235.859375 223.75 236.601562 223.195312 C 236.980469 222.957031 237.164062 223.582031 236.949219 223.824219 C 236.257812 224.949219 232.3125 228.777344 230.214844 229.695312 C 228.039062 230.722656 221.546875 230.496094 220.757812 231.074219 C 218.644531 232.601562 216.425781 234 214.09375 235.175781 C 213.730469 235.367188 213.335938 235.539062 213.117188 235.910156 C 213.695312 235.929688 214.292969 235.980469 214.851562 235.8125 C 216.71875 235.335938 217.898438 233.460938 219.847656 233.1875 C 221.4375 233.082031 223.054688 233.378906 224.625 233.039062 C 227.15625 232.554688 225.878906 233.050781 228.839844 231.179688 C 228.9375 231.242188 229.125 231.363281 229.222656 231.425781 C 228.882812 232.457031 227.847656 232.996094 227.019531 233.59375 C 224.851562 235.097656 222.59375 236.882812 219.839844 236.980469 C 211.425781 236.507812 211.605469 236.347656 210.796875 236.804688 C 208.867188 237.691406 206.875 238.4375 204.855469 239.089844 C 204.242188 239.292969 203.609375 239.445312 203.035156 239.738281 C 204.742188 240.941406 207.375 239.121094 209.019531 238.585938 C 210.03125 238.273438 211.011719 238.796875 211.980469 239.027344 C 213.355469 239.421875 214.800781 239.300781 216.214844 239.273438 C 217.515625 239.316406 218.53125 238.375 219.746094 238.078125 C 219.816406 238.15625 219.949219 238.3125 220.015625 238.394531 C 219.246094 239.265625 218.121094 239.699219 217.0625 240.117188 C 214.542969 241.09375 211.980469 242.230469 209.222656 242.199219 C 203.9375 241.546875 202.53125 240.433594 201.378906 240.109375 C 194.089844 241.992188 193.140625 241.058594 192.34375 241.929688 C 193.136719 242.179688 193.96875 242.535156 194.8125 242.300781 C 196.101562 242.117188 197.441406 241.578125 198.726562 242.039062 C 199.425781 242.269531 199.996094 242.761719 200.667969 243.050781 C 202.101562 243.742188 204.839844 244.222656 208.15625 243.5625 C 208.214844 243.65625 208.335938 243.839844 208.394531 243.933594 C 207.492188 244.691406 206.242188 244.691406 205.136719 244.875 C 197.550781 246.25 197.378906 245.546875 194.777344 244.355469 C 193.355469 243.664062 191.988281 242.851562 190.746094 241.871094 C 190.226562 241.789062 189.699219 241.847656 189.183594 241.871094 C 189.609375 242.472656 190.347656 242.722656 190.90625 243.179688 C 196.800781 247.621094 196.65625 250.460938 202.039062 250.496094 C 199.546875 251.355469 196.878906 251.792969 194.242188 251.648438 C 192.785156 244.792969 188.695312 241.867188 187.246094 242.046875 C 183.6875 243.117188 181.523438 247.914062 180.648438 251.679688 C 178.003906 251.742188 175.324219 251.382812 172.832031 250.476562 C 178.433594 250.386719 178.371094 247.320312 184.316406 242.960938 C 184.753906 242.609375 185.378906 242.429688 185.609375 241.867188 C 185.027344 241.894531 184.34375 241.636719 183.871094 242.085938 C 182.425781 243.199219 180.808594 244.078125 179.152344 244.828125 C 176.640625 246.195312 173.675781 245.542969 171.007812 245.109375 C 169.605469 244.691406 168.050781 244.867188 166.742188 244.144531 C 166.683594 243.953125 166.640625 243.757812 166.609375 243.566406 C 167.722656 243.65625 168.8125 244.03125 169.9375 243.925781 C 171.132812 243.761719 172.359375 243.777344 173.503906 243.367188 C 174.804688 243 175.816406 241.878906 177.214844 241.828125 C 178.34375 241.882812 179.433594 242.234375 180.550781 242.371094 C 181.203125 242.457031 181.820312 242.183594 182.429688 242 C 182.441406 241.914062 182.460938 241.746094 182.46875 241.660156 C 179.453125 241.320312 176.441406 240.855469 173.492188 240.09375 C 171.148438 241.230469 168.578125 241.808594 166.011719 242.175781 C 163.015625 242.320312 160.238281 241.007812 157.496094 240 C 156.679688 239.628906 155.800781 239.300781 155.171875 238.632812 C 154.929688 238.429688 155.019531 237.921875 155.410156 238.15625 C 157.390625 238.859375 157.152344 239.566406 162.0625 239.234375 C 163.402344 239.105469 164.6875 238.175781 166.054688 238.644531 C 168.199219 239.261719 168.800781 240.503906 171.519531 239.996094 C 171.578125 239.894531 171.699219 239.695312 171.761719 239.59375 C 169.128906 238.871094 166.550781 237.929688 164.070312 236.777344 C 163.355469 236.367188 162.515625 236.546875 161.734375 236.578125 C 159.949219 236.796875 158.144531 236.671875 156.363281 236.914062 C 155.238281 237.054688 154.089844 236.957031 153.007812 236.617188 C 150.816406 235.855469 146.589844 232.800781 145.898438 231.988281 C 145.78125 231.742188 145.753906 231.171875 146.152344 231.21875 C 147.386719 231.976562 148.300781 233.546875 154.226562 233.164062 C 157.257812 232.882812 158.535156 236.488281 161.800781 235.886719 C 161.613281 235.667969 161.390625 235.492188 161.136719 235.371094 C 158.707031 234.078125 156.335938 232.660156 154.101562 231.054688 C 152.625 230.601562 151.027344 230.738281 149.507812 230.476562 C 145.621094 230.238281 144.347656 230.128906 141.148438 227.117188 C 140 226.007812 138.683594 225.039062 137.851562 223.648438 C 137.902344 223.503906 138.003906 223.214844 138.054688 223.070312 C 139.007812 223.558594 139.601562 224.519531 140.542969 225.023438 C 142.175781 225.710938 144.015625 224.957031 145.65625 225.617188 C 148.234375 226.523438 149.527344 229.589844 152.355469 229.972656 C 152.207031 229.695312 152.019531 229.445312 151.769531 229.261719 C 149.667969 227.582031 147.683594 225.753906 145.851562 223.785156 C 145.097656 222.863281 137.320312 221.078125 135.308594 219.195312 C 133.535156 217.496094 132.328125 215.328125 131.089844 213.234375 C 130.765625 212.640625 130.242188 211.878906 130.871094 211.304688 C 132.300781 212.804688 132.023438 213.972656 134.472656 215.347656 C 135.773438 216.078125 137.339844 216.132812 138.621094 216.90625 C 140.90625 218.164062 141.867188 221.636719 144.152344 221.996094 C 143.683594 221.230469 143.035156 220.605469 142.484375 219.902344 C 134.808594 209.730469 141.566406 215.304688 131.898438 210.03125 C 130.089844 209.015625 128.914062 206.535156 127.652344 203.914062 C 127.242188 202.929688 126.5625 201.960938 126.832031 200.835938 C 127.808594 201.636719 127.789062 203.128906 128.769531 203.941406 C 129.882812 205.195312 131.71875 205.199219 132.996094 206.210938 C 135.167969 207.839844 135.523438 211.324219 137.191406 211.953125 C 137.132812 211.667969 137.058594 211.382812 136.914062 211.128906 C 133.894531 205.117188 134.324219 204.382812 133.640625 203.96875 C 126.75 198.8125 126.734375 198.277344 126.0625 194.925781 C 125.578125 191.273438 124.976562 190.105469 125.191406 188.953125 C 125.3125 188.949219 125.550781 188.945312 125.671875 188.941406 C 126.09375 190.453125 126.050781 192.167969 127.066406 193.449219 C 128.09375 194.914062 129.824219 195.699219 130.765625 197.230469 C 132.367188 199.808594 132.207031 202.242188 133.3125 202.371094 C 132.683594 199.9375 131.980469 197.507812 131.6875 195 C 131.578125 193.636719 128.609375 191.582031 125.804688 186.894531 C 124.746094 184.863281 125.085938 182.496094 125.28125 180.308594 C 125.5625 178.75 125.207031 177.066406 125.902344 175.59375 C 126.035156 175.589844 126.292969 175.585938 126.425781 175.582031 C 126.527344 177.015625 126.132812 178.425781 126.242188 179.851562 C 126.902344 183.292969 129.433594 183.90625 130.003906 188.492188 C 130.265625 190.070312 130.324219 192.34375 131.3125 192.351562 C 131.164062 189.699219 130.832031 187.03125 131.097656 184.371094 C 131.082031 183.503906 131.417969 182.550781 130.933594 181.761719 C 127.457031 175.167969 126.261719 174.03125 128.003906 168.324219 C 128.429688 166.941406 128.699219 165.492188 129.375 164.199219 C 129.519531 163.90625 129.824219 163.765625 130.078125 163.589844 C 130.191406 165.207031 129.042969 166.640625 129.039062 168.253906 C 129.207031 170.410156 130.757812 172.117188 131.148438 174.207031 C 131.503906 178.277344 130.554688 179.109375 131.25 180.246094 C 131.832031 179.53125 131.269531 179.421875 132.851562 173.148438 C 133.160156 171.652344 132.488281 170.226562 132.117188 168.8125 C 130.355469 161.582031 130.304688 161.777344 133.6875 155.773438 C 134.277344 154.800781 134.710938 153.71875 135.503906 152.882812 C 135.710938 152.828125 135.925781 152.792969 136.144531 152.785156 C 135.796875 154.570312 134.160156 155.84375 134.011719 157.695312 C 133.917969 159.738281 134.863281 161.707031 134.582031 163.761719 C 134.507812 165.898438 133.242188 167.839844 133.484375 170.011719 C 133.574219 169.996094 133.761719 169.96875 133.855469 169.957031 C 134.664062 167.1875 135.941406 164.578125 137.199219 161.996094 C 138.140625 160.105469 137.355469 155.800781 137.394531 154.128906 C 137.460938 151.019531 136.808594 150.472656 141.050781 146.257812 C 141.90625 145.402344 142.453125 144.28125 143.371094 143.480469 C 143.574219 143.414062 143.78125 143.363281 143.996094 143.339844 C 143.945312 143.640625 143.980469 144 143.714844 144.214844 C 141.070312 147.039062 141.519531 146.648438 141.210938 150.800781 C 141.335938 154.265625 138.402344 156.855469 138.441406 159.316406 C 139.261719 159.136719 138.515625 158.859375 144.074219 151.898438 C 144.492188 150.21875 143.9375 146.183594 145.847656 142.597656 C 146.789062 140.972656 148.339844 139.84375 149.808594 138.726562 C 150.804688 138.039062 151.570312 137.082031 152.507812 136.328125 C 152.746094 136.105469 153.082031 136.09375 153.382812 136.023438 C 153.382812 136.164062 153.386719 136.453125 153.386719 136.597656 C 152.605469 137.335938 151.632812 137.863281 150.960938 138.714844 C 149.910156 140.171875 150.34375 142.136719 149.421875 143.640625 C 148.019531 146.152344 145.28125 147.855469 145.171875 150.492188 C 145.804688 150.128906 146.238281 149.519531 146.75 149.011719 C 147.773438 148.003906 148.777344 146.976562 149.890625 146.0625 C 150.753906 145.210938 151.816406 144.585938 152.65625 143.714844 C 153.617188 142.0625 153.777344 136.027344 157.910156 133.878906 C 158.796875 133.375 159.828125 133.125 160.636719 132.472656 Z M 160.636719 132.472656 "/></g><path style=" stroke:none;fill-rule:nonzero;fill:#004aad;fill-opacity:1;" d="M 186.316406 146.734375 C 187.058594 146.675781 187.804688 146.695312 188.546875 146.742188 C 188.761719 148.761719 188.539062 150.808594 188.667969 152.839844 C 190 151.511719 190.828125 149.734375 192.179688 148.425781 C 192.046875 163 192.378906 163.046875 191.988281 163.628906 C 190.898438 165.144531 189.703125 166.585938 188.675781 168.140625 C 188.597656 169.113281 188.582031 170.113281 188.707031 171.082031 C 192.765625 167.390625 196.199219 168.542969 203.429688 167.6875 C 206.367188 167.222656 209.488281 166.582031 211.796875 164.558594 C 212.5625 163.894531 212.90625 162.917969 213.136719 161.960938 C 214.023438 160.9375 215.769531 160.75 216.792969 161.675781 C 217.519531 162.574219 217.46875 163.9375 216.800781 164.859375 C 216.308594 165.441406 215.558594 165.6875 214.925781 166.078125 C 215.085938 166.496094 229.085938 197.980469 230.019531 198.753906 C 221.136719 207.855469 206.746094 207.203125 198.769531 198.726562 C 199.714844 198.359375 198.390625 200.746094 213.089844 168.375 C 213.367188 167.769531 213.660156 167.167969 213.851562 166.53125 C 205.917969 168.445312 191.898438 169.371094 188.734375 176.679688 C 188.589844 177.011719 188.566406 221.324219 188.695312 222.476562 C 189.707031 221.925781 190.726562 221.382812 191.769531 220.890625 C 190.566406 223.898438 189.078125 226.789062 187.804688 229.769531 C 187.671875 229.941406 187.660156 230.441406 187.347656 230.238281 C 185.933594 227.113281 184.492188 224.003906 183.09375 220.871094 C 184.199219 221.320312 185.1875 222.027344 186.304688 222.46875 C 186.332031 215.53125 186.335938 179.730469 186.300781 176.921875 C 183.363281 169.324219 168.097656 168.273438 161.085938 166.527344 C 161.226562 167.09375 160.375 165.15625 175.230469 197.898438 C 175.363281 198.324219 175.691406 198.589844 176.078125 198.777344 C 167.964844 207.484375 153.140625 207.535156 144.96875 198.757812 C 145.734375 198.074219 159.527344 167.242188 159.980469 166.078125 C 159.367188 165.714844 158.683594 165.429688 158.167969 164.929688 C 156.40625 162.554688 158.84375 159.671875 161.699219 161.789062 C 162.179688 162.832031 161.847656 164.84375 166.886719 166.640625 C 174.496094 169.257812 180.726562 166.609375 185.328125 170.382812 C 185.644531 170.632812 185.957031 170.882812 186.300781 171.097656 C 186.324219 170.15625 186.339844 169.214844 186.3125 168.273438 C 185.265625 166.59375 183.933594 165.097656 182.839844 163.453125 C 182.757812 162.925781 182.804688 148.484375 182.804688 148.410156 C 184.527344 150.425781 185.542969 152.300781 186.296875 152.847656 C 186.363281 150.808594 186.300781 148.773438 186.316406 146.734375 M 186.949219 147.996094 C 187.035156 148.972656 186.753906 150.011719 187.136719 150.941406 C 188.050781 150.535156 187.945312 151.773438 187.925781 147.929688 C 187.601562 147.953125 187.277344 147.972656 186.949219 147.996094 M 188.917969 154.261719 C 188.441406 154.789062 188.605469 155.554688 188.542969 156.203125 C 188.644531 156.175781 188.839844 156.121094 188.941406 156.09375 C 189.636719 155.261719 190.230469 154.339844 190.910156 153.492188 C 191.449219 152.875 191.21875 152.007812 191.203125 151.265625 C 190.371094 152.207031 189.699219 153.277344 188.917969 154.261719 M 183.617188 151.410156 C 183.617188 151.925781 183.59375 152.441406 183.628906 152.957031 C 184.125 153.8125 184.804688 154.550781 185.371094 155.359375 C 185.640625 155.714844 185.832031 156.210938 186.34375 156.25 C 186.320312 155.691406 186.417969 155.109375 186.257812 154.566406 C 185.789062 153.851562 185.214844 153.214844 184.742188 152.503906 C 184.429688 152.082031 184.191406 151.515625 183.617188 151.410156 M 190.226562 155.980469 C 189.695312 156.757812 189.050781 157.457031 188.558594 158.261719 C 188.503906 158.71875 188.523438 159.183594 188.523438 159.644531 C 188.625 159.601562 188.828125 159.511719 188.929688 159.46875 C 191.875 155.4375 191.203125 156.839844 191.253906 154.847656 C 190.761719 155.066406 190.535156 155.570312 190.226562 155.980469 M 183.613281 154.890625 C 183.621094 155.34375 183.558594 155.8125 183.667969 156.257812 C 184.066406 156.960938 184.625 157.554688 185.085938 158.21875 C 185.449219 158.722656 185.757812 159.304688 186.320312 159.621094 C 186.335938 159.164062 186.363281 158.707031 186.308594 158.253906 C 185.664062 157.117188 184.792969 156.140625 184.011719 155.105469 C 183.914062 155.050781 183.710938 154.945312 183.613281 154.890625 M 183.628906 158.152344 C 183.605469 158.644531 183.585938 159.136719 183.632812 159.625 C 184.078125 160.304688 184.625 160.90625 185.0625 161.589844 C 185.398438 162.042969 185.6875 162.640625 186.308594 162.730469 C 186.296875 162.292969 186.378906 161.847656 186.289062 161.417969 C 184.25 158.519531 184.085938 158.363281 183.628906 158.152344 M 189.886719 159.757812 C 189.492188 160.339844 189.03125 160.871094 188.644531 161.457031 C 188.601562 161.921875 188.625 162.390625 188.636719 162.855469 C 188.855469 162.738281 189.09375 162.625 189.21875 162.398438 C 189.871094 161.453125 190.628906 160.585938 191.261719 159.632812 C 191.308594 159.117188 191.273438 158.597656 191.230469 158.082031 C 190.636719 158.511719 190.308594 159.179688 189.886719 159.757812 M 189.898438 163.105469 C 189.457031 163.71875 188.929688 164.28125 188.566406 164.953125 C 188.492188 165.367188 188.609375 165.789062 188.648438 166.203125 C 189.589844 165.570312 190.054688 164.433594 190.816406 163.609375 C 191.40625 163.0625 191.269531 162.234375 191.234375 161.515625 C 190.644531 161.90625 190.328125 162.5625 189.898438 163.105469 M 183.605469 161.628906 C 183.613281 162.066406 183.570312 162.507812 183.648438 162.941406 C 184.046875 163.59375 184.558594 164.171875 184.980469 164.808594 C 185.386719 165.335938 185.707031 165.972656 186.320312 166.292969 C 186.222656 164.253906 186.972656 165.804688 184.351562 162.132812 C 184.183594 161.859375 183.910156 161.695312 183.605469 161.628906 M 146.859375 196.664062 C 146.585938 197.296875 146.21875 197.902344 146.113281 198.59375 C 155.667969 198.625 165.226562 198.613281 174.785156 198.597656 C 174.308594 197.238281 160.820312 167.511719 160.359375 167.003906 C 155.820312 176.871094 151.363281 186.777344 146.859375 196.664062 M 214.363281 167.109375 C 199.488281 199.890625 200.285156 197.960938 200.1875 198.601562 C 209.746094 198.617188 219.304688 198.617188 228.859375 198.601562 C 228.640625 197.808594 220.574219 180.238281 214.847656 167.578125 C 214.75 167.351562 214.667969 167.074219 214.363281 167.109375 Z M 214.363281 167.109375 "/><g style="fill:#004aad;fill-opacity:1;"><g transform="translate(111.715246, 172.379805)"><path style="stroke:none" d="M -10.328125 -9.921875 C -9.878906 -11.460938 -8.90625 -12.578125 -7.40625 -13.265625 C -5.914062 -13.953125 -4.332031 -14.050781 -2.65625 -13.5625 C -0.875 -13.03125 0.414062 -12.0625 1.21875 -10.65625 C 2.019531 -9.25 2.191406 -7.660156 1.734375 -5.890625 L 0.1875 -0.65625 L -0.4375 -0.734375 L -0.546875 -2.46875 L -10.453125 -5.375 L -10.921875 -4.078125 L -11.796875 -4.375 C -11.316406 -6.351562 -10.828125 -8.203125 -10.328125 -9.921875 Z M 0.40625 -5.9375 C 0.78125 -7.226562 0.632812 -8.390625 -0.03125 -9.421875 C -0.707031 -10.460938 -1.769531 -11.195312 -3.21875 -11.625 C -4.3125 -11.945312 -5.394531 -12 -6.46875 -11.78125 C -7.539062 -11.570312 -8.367188 -11.148438 -8.953125 -10.515625 L -9.703125 -7.03125 L -0.34375 -4.296875 C 0 -4.847656 0.25 -5.394531 0.40625 -5.9375 Z M 0.40625 -5.9375 "/></g></g><g style="fill:#004aad;fill-opacity:1;"><g transform="translate(116.400097, 157.273404)"><path style="stroke:none" d="M 5.90625 -12.640625 L 6.6875 -12.1875 L 4.203125 -7.65625 L 3.59375 -7.84375 L 3.875 -9.578125 L 0.078125 -11.65625 L -2.921875 -6.1875 L 0.953125 -4.0625 L 2.03125 -5.59375 L 2.828125 -5.15625 L 0.328125 -0.609375 L -0.265625 -0.796875 L 0 -2.53125 L -8.984375 -7.453125 L -9.84375 -6.25 L -10.640625 -6.703125 L -8.328125 -10.90625 L -7.75 -10.703125 L -8 -8.96875 L -4.109375 -6.828125 L -1.109375 -12.296875 L -5.109375 -14.5 L -5.984375 -13.296875 L -6.765625 -13.75 L -4.46875 -17.953125 L -3.875 -17.75 L -4.140625 -16.015625 L 4.8125 -11.109375 Z M 5.90625 -12.640625 "/></g></g><g style="fill:#004aad;fill-opacity:1;"><g transform="translate(125.247689, 142.013517)"><path style="stroke:none" d="M 8.234375 -10.65625 L 8.890625 -10.0625 L 5.46875 -6.1875 L 4.90625 -6.5 C 5.050781 -6.9375 5.304688 -7.554688 5.671875 -8.359375 L 3.046875 -9.3125 L -0.40625 -5.390625 L 0.9375 -2.78125 L 2.46875 -4.140625 L 3.125 -3.53125 L -0.171875 0.203125 L -0.734375 -0.109375 C -0.617188 -0.453125 -0.40625 -0.984375 -0.09375 -1.703125 L -5.296875 -12.34375 L -5.65625 -12.46875 L -5.03125 -13.96875 L 7.171875 -9.71875 Z M 1.859375 -9.75 L -3.640625 -11.734375 L -0.984375 -6.546875 Z M 1.859375 -9.75 "/></g></g><g style="fill:#004aad;fill-opacity:1;"><g transform="translate(136.541092, 129.822227)"><path style="stroke:none" d="M 9.109375 -7.90625 L 9.640625 -7.15625 L 7.28125 -5.40625 L 2.078125 -7.796875 L 0.234375 -6.40625 L 2.53125 -3.3125 L 4.328125 -4.359375 L 4.859375 -3.609375 L 0.546875 -0.40625 L 0.09375 -0.84375 L 1.046875 -2.3125 L -5.109375 -10.59375 L -6.265625 -9.828125 L -6.78125 -10.59375 L -2.5625 -13.921875 C -1.46875 -14.742188 -0.375 -15.125 0.71875 -15.0625 C 1.8125 -15 2.679688 -14.535156 3.328125 -13.671875 C 3.785156 -13.046875 4.03125 -12.3125 4.0625 -11.46875 C 4.101562 -10.632812 3.863281 -9.835938 3.34375 -9.078125 L 8 -7.21875 Z M -0.53125 -7.4375 C 0 -7.71875 0.472656 -8.007812 0.890625 -8.3125 C 1.835938 -9.019531 2.332031 -9.738281 2.375 -10.46875 C 2.414062 -11.195312 2.207031 -11.875 1.75 -12.5 C 1.019531 -13.476562 0.109375 -13.867188 -0.984375 -13.671875 L -3.5 -11.453125 Z M -0.53125 -7.4375 "/></g></g><g style="fill:#004aad;fill-opacity:1;"><g transform="translate(148.997802, 120.656867)"><path style="stroke:none" d="M 15.09375 -7.46875 L 15.4375 -6.640625 L 10.671875 -4.59375 L 10.328125 -5.125 L 11.609375 -6.328125 L 8.796875 -12.609375 L 7.78125 -15.640625 L 8.46875 -3.984375 L 7.125 -2.90625 L -1.09375 -11.65625 L 0.453125 -9.03125 L 3.046875 -2.5 L 4.625 -2.96875 L 4.96875 -2.140625 L 0.625 -0.265625 L 0.28125 -0.8125 C 0.550781 -1.113281 1 -1.523438 1.625 -2.046875 L -2.078125 -11.59375 L -3.546875 -11.140625 L -3.890625 -11.984375 L -0.3125 -13.53125 L 7.265625 -5.390625 L 6.546875 -16.46875 L 9.78125 -17.875 L 10.140625 -17.359375 C 9.898438 -17.085938 9.53125 -16.734375 9.03125 -16.296875 L 13.25 -6.921875 Z M 15.09375 -7.46875 "/></g></g><g style="fill:#004aad;fill-opacity:1;"><g transform="translate(168.036352, 113.132568)"><path style="stroke:none" d="M 13.09375 -3.109375 L 13.234375 -2.21875 L 8.140625 -1.359375 L 7.90625 -1.953125 C 8.28125 -2.210938 8.863281 -2.539062 9.65625 -2.9375 L 8.234375 -5.3125 L 3.09375 -4.453125 L 2.484375 -1.578125 L 4.515625 -1.671875 L 4.65625 -0.78125 L -0.265625 0.046875 L -0.5 -0.546875 C -0.195312 -0.742188 0.300781 -1.023438 1 -1.390625 L 3.640625 -12.921875 L 3.453125 -13.25 L 4.875 -14.015625 L 11.6875 -3.046875 Z M 7.5625 -6.40625 L 4.546875 -11.421875 L 3.34375 -5.703125 Z M 7.5625 -6.40625 "/></g></g><g style="fill:#004aad;fill-opacity:1;"><g transform="translate(184.632565, 110.962792)"><path style="stroke:none" d=""/></g></g><g style="fill:#004aad;fill-opacity:1;"><g transform="translate(193.134158, 110.983869)"><path style="stroke:none" d="M 10.75 -2.34375 C 10.550781 -0.832031 10.289062 0.425781 9.96875 1.4375 L 0.6875 0.09375 L 0.671875 -0.546875 L 2.375 -0.890625 L 3.828125 -11.046875 L 2.390625 -11.40625 L 2.53125 -12.3125 L 7.265625 -11.640625 L 7.296875 -11.015625 L 5.578125 -10.65625 L 4.15625 -0.703125 L 8.84375 -0.234375 L 9.703125 -2.5625 Z M 10.75 -2.34375 "/></g></g><g style="fill:#004aad;fill-opacity:1;"><g transform="translate(206.77512, 113.120195)"><path style="stroke:none" d="M 12.96875 3.625 L 12.65625 4.46875 L 7.78125 2.75 L 7.859375 2.109375 C 8.316406 2.078125 8.988281 2.082031 9.875 2.125 L 9.78125 -0.65625 L 4.859375 -2.390625 L 2.921875 -0.171875 L 4.765625 0.71875 L 4.453125 1.578125 L -0.25 -0.09375 L -0.171875 -0.71875 C 0.191406 -0.75 0.769531 -0.753906 1.5625 -0.734375 L 9.453125 -9.546875 L 9.453125 -9.921875 L 11.0625 -9.890625 L 11.703125 3.015625 Z M 9.734375 -1.921875 L 9.515625 -7.78125 L 5.6875 -3.34375 Z M 9.734375 -1.921875 "/></g></g><g style="fill:#004aad;fill-opacity:1;"><g transform="translate(222.346556, 118.751088)"><path style="stroke:none" d="M 21.390625 -0.21875 C 20.898438 -0.289062 20.367188 -0.414062 19.796875 -0.59375 L 10.828125 7.1875 C 10.316406 6.988281 9.851562 6.753906 9.4375 6.484375 L 8.984375 6.140625 L 11.3125 -1.15625 L 11.28125 -1.1875 L 9.765625 0.453125 L 5.65625 3.796875 C 5.144531 3.585938 4.695312 3.359375 4.3125 3.109375 L 3.859375 2.765625 L 7.515625 -8.78125 L 6.390625 -9.71875 L 6.90625 -10.46875 L 11.0625 -7.75 L 10.8125 -7.171875 L 9.0625 -7.578125 L 6.515625 0.25 L 5.46875 2.234375 L 5.53125 2.28125 L 11.953125 -3.1875 L 12.78125 -5.78125 L 14.578125 -5.1875 L 11.546875 3.578125 L 10.546875 5.578125 L 10.59375 5.609375 L 18.59375 -1.421875 L 17.078125 -2.6875 L 17.609375 -3.4375 L 21.609375 -0.796875 Z M 21.390625 -0.21875 "/></g></g><g style="fill:#004aad;fill-opacity:1;"><g transform="translate(239.329419, 131.003554)"><path style="stroke:none" d=""/></g></g><g style="fill:#004aad;fill-opacity:1;"><g transform="translate(245.398212, 136.942045)"><path style="stroke:none" d="M 13.90625 -2.703125 C 14.71875 -1.628906 15.082031 -0.53125 15 0.59375 C 14.914062 1.726562 14.410156 2.648438 13.484375 3.359375 C 12.597656 4.023438 11.625 4.273438 10.5625 4.109375 C 9.5 3.941406 8.570312 3.378906 7.78125 2.421875 L 6.1875 0.34375 L 3.359375 2.5 L 4.515625 4.453125 L 3.78125 4.984375 L 0.421875 0.546875 L 0.84375 0.078125 L 2.3125 1.03125 L 10.546875 -5.21875 L 9.78125 -6.359375 L 10.53125 -6.890625 Z M 8.296875 1.21875 C 8.878906 1.988281 9.535156 2.394531 10.265625 2.4375 C 11.003906 2.476562 11.695312 2.253906 12.34375 1.765625 C 12.832031 1.390625 13.203125 0.945312 13.453125 0.4375 C 13.703125 -0.0703125 13.769531 -0.59375 13.65625 -1.125 L 11.40625 -3.625 L 7.21875 -0.4375 C 7.601562 0.238281 7.960938 0.789062 8.296875 1.21875 Z M 8.296875 1.21875 "/></g></g><g style="fill:#004aad;fill-opacity:1;"><g transform="translate(253.818518, 148.860136)"><path style="stroke:none" d="M 0.828125 2.8125 C 0.742188 2.226562 0.828125 1.6875 1.078125 1.1875 C 1.710938 1.144531 2.253906 1.242188 2.703125 1.484375 C 2.785156 1.960938 2.695312 2.488281 2.4375 3.0625 C 1.832031 3.15625 1.296875 3.070312 0.828125 2.8125 Z M 0.828125 2.8125 "/></g></g><g style="fill:#004aad;fill-opacity:1;"><g transform="translate(257.354311, 155.213064)"><path style="stroke:none" d="M 5.03125 9.109375 L 2.0625 6.1875 C 1.375 4.425781 1.367188 2.804688 2.046875 1.328125 C 2.734375 -0.140625 3.992188 -1.222656 5.828125 -1.921875 C 7.660156 -2.640625 9.375 -2.71875 10.96875 -2.15625 C 12.5625 -1.59375 13.675781 -0.488281 14.3125 1.15625 C 14.84375 2.507812 14.929688 3.8125 14.578125 5.0625 L 14.015625 5.296875 C 13.179688 5.617188 12.394531 5.800781 11.65625 5.84375 L 11.234375 4.765625 L 13.03125 3.921875 C 13.207031 2.867188 13.097656 1.832031 12.703125 0.8125 L 12.390625 0.09375 C 11.691406 -0.488281 10.847656 -0.785156 9.859375 -0.796875 C 8.867188 -0.804688 7.894531 -0.628906 6.9375 -0.265625 C 5.488281 0.296875 4.445312 1.117188 3.8125 2.203125 C 3.175781 3.285156 3.097656 4.4375 3.578125 5.65625 L 3.734375 6.03125 L 5.796875 8.4375 Z M 5.03125 9.109375 "/></g></g><g style="fill:#004aad;fill-opacity:1;"><g transform="translate(261.987737, 168.492875)"><path style="stroke:none" d="M 0.03125 2.921875 C 0.113281 2.347656 0.335938 1.851562 0.703125 1.4375 C 1.335938 1.570312 1.832031 1.816406 2.1875 2.171875 C 2.132812 2.648438 1.910156 3.128906 1.515625 3.609375 C 0.898438 3.523438 0.40625 3.296875 0.03125 2.921875 Z M 0.03125 2.921875 "/></g></g></g></svg>